<svg width="233" height="233" viewBox="0 0 233 233" fill="none" xmlns="http://www.w3.org/2000/svg">
<g clip-path="url(#clip0_221_75)">
<circle cx="116.293" cy="116.293" r="91" fill="white" stroke="black" stroke-width="50"/>
<path d="M191.071 171.499C190.459 172.061 189.749 172.358 188.941 172.389C188.145 172.428 187.415 172.212 186.752 171.74C185.796 171.06 185.275 170.182 185.189 169.107C185.106 168.05 185.49 166.924 186.34 165.729L190.131 160.399L201.572 168.537L197.909 173.687C197.082 174.849 196.171 175.567 195.175 175.841C194.171 176.125 193.213 175.942 192.3 175.293C191.626 174.814 191.194 174.237 191.004 173.561C190.805 172.897 190.828 172.209 191.071 171.499ZM194.961 168.032L193.663 169.857C193.338 170.313 193.189 170.731 193.214 171.109C193.243 171.505 193.453 171.843 193.844 172.121C194.235 172.399 194.623 172.487 195.007 172.384C195.384 172.292 195.734 172.017 196.059 171.561L197.357 169.736L194.961 168.032ZM188.937 166.839C188.605 167.307 188.453 167.739 188.482 168.135C188.513 168.551 188.73 168.901 189.132 169.187C189.534 169.473 189.946 169.561 190.368 169.452C190.781 169.354 191.154 169.071 191.486 168.604L192.924 166.583L190.398 164.786L188.937 166.839Z" fill="white"/>
<path d="M184.699 188.962L179.095 182.705C178.535 182.079 177.95 181.735 177.339 181.673C176.729 181.611 176.126 181.847 175.53 182.381C174.934 182.915 174.628 183.493 174.613 184.115C174.597 184.737 174.87 185.361 175.43 185.987L181.034 192.245L178.487 194.526L172.896 188.284C172.06 187.35 171.551 186.383 171.37 185.381C171.19 184.38 171.29 183.413 171.672 182.48C172.044 181.556 172.642 180.725 173.466 179.987C174.291 179.249 175.173 178.745 176.113 178.476C177.052 178.225 178 178.254 178.955 178.561C179.92 178.879 180.82 179.505 181.656 180.438L187.247 186.681L184.699 188.962Z" fill="white"/>
<path d="M160.472 205.997L159.968 195.427L157.643 191.412L160.603 189.698L162.928 193.714L171.844 199.414L168.486 201.358L163.186 197.632L163.795 204.073L160.472 205.997Z" fill="white"/>
<path d="M141.715 205.904C141.971 207.267 141.904 208.534 141.514 209.707C141.127 210.892 140.464 211.878 139.527 212.665C138.579 213.467 137.437 213.994 136.1 214.246C134.462 214.554 132.979 214.385 131.65 213.74C130.321 213.094 129.32 212.061 128.645 210.642L132.341 209.947C132.724 210.471 133.2 210.836 133.768 211.042C134.322 211.249 134.921 211.293 135.563 211.172C136.598 210.977 137.369 210.459 137.875 209.618C138.382 208.776 138.522 207.753 138.295 206.547C138.068 205.342 137.566 204.439 136.788 203.839C136.011 203.239 135.104 203.037 134.069 203.231C133.427 203.352 132.885 203.61 132.444 204.005C131.99 204.403 131.679 204.915 131.513 205.544L127.817 206.239C127.93 204.671 128.487 203.345 129.491 202.261C130.497 201.19 131.819 200.5 133.457 200.192C134.793 199.941 136.048 200.01 137.22 200.4C138.382 200.806 139.357 201.484 140.147 202.434C140.936 203.385 141.459 204.541 141.715 205.904Z" fill="white"/>
<path d="M114.39 204.654L109.91 204.641L109.918 202.001L117.818 202.025L117.776 216.065L114.356 216.054L114.39 204.654Z" fill="white"/>
<path d="M101.055 200.515C102.355 200.745 103.496 201.258 104.479 202.055C105.449 202.85 106.16 203.842 106.613 205.033C107.05 206.234 107.149 207.511 106.91 208.863C106.67 210.215 106.14 211.374 105.32 212.339C104.486 213.302 103.477 213.99 102.293 214.403C101.097 214.814 99.8486 214.905 98.5488 214.675C97.249 214.445 96.1142 213.932 95.1445 213.138C94.1617 212.341 93.4571 211.35 93.0306 210.164C92.5909 208.976 92.4908 207.705 92.7302 206.353C92.9695 205.001 93.5008 203.835 94.3239 202.857C95.1446 201.892 96.1468 201.203 97.3303 200.79C98.5138 200.376 99.7554 200.285 101.055 200.515ZM100.511 203.587C99.4086 203.392 98.4638 203.604 97.6772 204.223C96.8775 204.839 96.3707 205.752 96.1569 206.96C95.9408 208.181 96.1036 209.211 96.6453 210.052C97.1717 210.904 97.9863 211.427 99.0891 211.622C100.205 211.82 101.162 211.617 101.959 211.013C102.743 210.407 103.245 209.487 103.463 208.253C103.679 207.032 103.524 205.996 102.998 205.144C102.456 204.304 101.627 203.785 100.511 203.587Z" fill="white"/>
<path d="M74.3956 207.097L75.3713 204.536L78.8474 205.861L82.8713 195.302L86.0671 196.52L82.0432 207.079L85.5194 208.403L84.5437 210.964L74.3956 207.097Z" fill="white"/>
<path d="M58.9077 198.123L66.2818 186.176L69.1921 187.972L66.1563 192.891L70.6835 195.685L73.7192 190.766L76.6295 192.562L69.2554 204.51L66.3451 202.714L69.2338 198.033L64.7067 195.239L61.818 199.919L58.9077 198.123Z" fill="white"/>
<path d="M50.4723 187.637L52.4486 185.598L49.1594 182.411L50.9965 180.515L54.2857 183.702L56.429 181.49L52.7089 177.885L54.6156 175.917L60.7918 181.902L51.0217 191.985L44.8455 186L46.7522 184.033L50.4723 187.637Z" fill="white"/>
<path d="M45.5296 164.468C46.1103 165.315 46.4932 166.168 46.6783 167.027C46.8634 167.886 46.8261 168.704 46.5664 169.48C46.299 170.246 45.7936 170.9 45.05 171.442L42.9912 168.44C43.3899 168.102 43.6179 167.727 43.6754 167.316C43.7218 166.912 43.6056 166.507 43.3265 166.1C43.04 165.682 42.7203 165.417 42.3674 165.303C42.0036 165.197 41.6513 165.261 41.3104 165.494C41.0245 165.69 40.856 165.952 40.8048 166.278C40.746 166.593 40.7542 166.935 40.8294 167.304C40.8969 167.662 41.031 168.152 41.2315 168.774C41.5134 169.68 41.701 170.449 41.7944 171.08C41.8877 171.711 41.8259 172.352 41.6088 173.002C41.3918 173.652 40.9204 174.226 40.1947 174.723C39.1171 175.463 38.0082 175.649 36.868 175.283C35.7168 174.925 34.7114 174.119 33.8517 172.865C32.9769 171.59 32.5797 170.351 32.66 169.147C32.7293 167.952 33.2894 166.954 34.3403 166.152L36.433 169.203C36.0742 169.482 35.8771 169.819 35.8416 170.215C35.7952 170.619 35.9077 171.019 36.1792 171.415C36.4129 171.755 36.6949 171.966 37.0252 172.047C37.3444 172.135 37.6744 172.062 38.0153 171.829C38.3891 171.572 38.5599 171.196 38.5275 170.701C38.4951 170.206 38.3434 169.502 38.0725 168.588C37.8126 167.667 37.6397 166.896 37.5539 166.276C37.4606 165.645 37.5169 165.008 37.723 164.366C37.929 163.723 38.3784 163.164 39.0711 162.689C39.7309 162.237 40.447 161.996 41.2196 161.967C41.9846 161.928 42.7453 162.117 43.5016 162.537C44.2578 162.956 44.9339 163.599 45.5296 164.468Z" fill="white"/>
<path d="M25.7058 128.264L26.3632 131.681L29.8591 131.009L30.4711 134.19L26.9752 134.863L27.6326 138.28L24.6277 138.858L23.9703 135.441L20.4548 136.117L19.8427 132.935L23.3583 132.259L22.7009 128.842L25.7058 128.264Z" fill="white"/>
<path d="M25.0635 111.042L25.0675 114.522L28.6275 114.518L28.6312 117.758L25.0712 117.762L25.0752 121.242L22.0152 121.246L22.0112 117.766L18.4312 117.77L18.4275 114.53L22.0075 114.526L22.0035 111.046L25.0635 111.042Z" fill="white"/>
<path d="M27.6667 94.0065L27.0172 97.4254L30.5147 98.0898L29.91 101.273L26.4126 100.608L25.7631 104.027L22.7568 103.456L23.4063 100.037L19.8892 99.3692L20.4939 96.1861L24.011 96.8543L24.6605 93.4354L27.6667 94.0065Z" fill="white"/>
<path d="M41.659 60.8144C42.2733 60.2539 42.9842 59.9592 43.7917 59.9304C44.5885 59.8938 45.3175 60.1122 45.979 60.5855C46.9332 61.2682 47.4517 62.1475 47.5345 63.2232C47.6143 64.2804 47.2274 65.4054 46.374 66.5981L42.5683 71.9168L31.1502 63.7469L34.8278 58.6071C35.658 57.4469 36.5715 56.7315 37.5683 56.4611C38.573 56.1798 39.5307 56.3651 40.4415 57.0168C41.1138 57.4978 41.5443 58.0763 41.7328 58.7523C41.9291 59.4174 41.9045 60.1048 41.659 60.8144ZM37.7596 64.2708L39.0631 62.4491C39.3889 61.9937 39.5396 61.5768 39.5151 61.1986C39.4875 60.8018 39.2786 60.4638 38.8882 60.1844C38.4978 59.9051 38.1104 59.8165 37.7259 59.9184C37.3492 60.0096 36.9979 60.2829 36.6721 60.7383L35.3686 62.56L37.7596 64.2708ZM43.7802 65.48C44.1139 65.0138 44.2669 64.5822 44.2393 64.1854C44.2086 63.77 43.9927 63.4187 43.5915 63.1317C43.1903 62.8446 42.7789 62.7551 42.3572 62.8633C41.9433 62.9606 41.5695 63.2424 41.2359 63.7087L39.7927 65.7255L42.3138 67.5294L43.7802 65.48Z" fill="white"/>
<path d="M48.081 43.3692L53.6671 49.6426C54.2257 50.2699 54.81 50.6154 55.4202 50.6791C56.0304 50.7428 56.6342 50.5087 57.2317 49.9766C57.8291 49.4446 58.1364 48.8675 58.1536 48.2452C58.1708 47.6229 57.9001 46.9981 57.3415 46.3707L51.7554 40.0973L54.3096 37.823L59.8824 44.0814C60.7158 45.0175 61.2216 45.9865 61.3996 46.9884C61.5776 47.9903 61.4744 48.9571 61.0899 49.8886C60.7153 50.8113 60.1148 51.6406 59.2883 52.3765C58.4618 53.1125 57.5781 53.6137 56.6371 53.8803C55.6972 54.128 54.7499 54.0967 53.7952 53.7864C52.8316 53.4661 51.9331 52.838 51.0996 51.902L45.5268 45.6435L48.081 43.3692Z" fill="white"/>
<path d="M72.3568 26.4031L72.8305 36.9746L75.1439 40.9968L72.1793 42.7019L69.8659 38.6797L60.9665 32.9544L64.3298 31.0199L69.6193 34.7609L69.0281 28.3177L72.3568 26.4031Z" fill="white"/>
<path d="M91.113 26.5496C90.8606 25.1861 90.9311 23.9188 91.3244 22.7476C91.7154 21.5633 92.3807 20.5791 93.3203 19.795C94.2706 18.9953 95.4144 18.4716 96.7517 18.224C98.3905 17.9206 99.8734 18.0936 101.2 18.7429C102.527 19.3921 103.526 20.4277 104.196 21.8494L100.499 22.5339C100.117 22.008 99.6421 21.6416 99.075 21.4348C98.5209 21.2255 97.9227 21.1803 97.2803 21.2992C96.2446 21.4909 95.4722 22.0068 94.9633 22.8468C94.4544 23.6869 94.3116 24.71 94.5349 25.9161C94.7582 27.1223 95.2578 28.0264 96.0337 28.6286C96.8096 29.2307 97.7155 29.4359 98.7512 29.2442C99.3936 29.1253 99.936 28.8689 100.378 28.4751C100.834 28.0789 101.146 27.5669 101.314 26.9391L105.012 26.2546C104.895 27.822 104.333 29.1464 103.327 30.2277C102.318 31.2959 100.994 31.9817 99.3549 32.2851C98.0176 32.5327 96.7634 32.4598 95.5922 32.0664C94.4317 31.6575 93.4581 30.9767 92.6716 30.024C91.885 29.0712 91.3655 27.9131 91.113 26.5496Z" fill="white"/>
<path d="M118.434 27.8772L122.914 27.9033L122.898 30.5432L114.999 30.4972L115.08 16.4574L118.5 16.4774L118.434 27.8772Z" fill="white"/>
<path d="M131.757 32.0551C130.458 31.8213 129.318 31.3046 128.338 30.505C127.37 29.7077 126.662 28.7132 126.212 27.5214C125.779 26.3189 125.683 25.0418 125.926 23.6902C126.17 22.3386 126.703 21.1814 127.527 20.2187C128.363 19.2584 129.374 18.5732 130.559 18.1632C131.756 17.7556 133.005 17.6687 134.304 17.9024C135.603 18.1362 136.736 18.6518 137.704 19.449C138.684 20.2487 139.386 21.242 139.809 22.4291C140.245 23.6185 140.342 24.889 140.099 26.2406C139.856 27.5922 139.321 28.7559 138.495 29.7318C137.672 30.6945 136.667 31.3808 135.483 31.7908C134.298 32.2008 133.056 32.2889 131.757 32.0551ZM132.31 28.9844C133.412 29.1828 134.357 28.9736 135.146 28.3568C135.947 27.7424 136.457 26.8315 136.674 25.6242C136.893 24.4038 136.734 23.3726 136.194 22.5304C135.67 21.6775 134.857 21.1518 133.755 20.9534C132.639 20.7527 131.682 20.953 130.883 21.5543C130.097 22.158 129.593 23.0766 129.371 24.3101C129.151 25.5305 129.304 26.5672 129.827 27.4201C130.367 28.2623 131.194 28.7837 132.31 28.9844Z" fill="white"/>
<path d="M158.435 25.5488L157.452 28.1064L153.98 26.7719L149.926 37.3196L146.734 36.0927L150.788 25.5449L147.315 24.2103L148.298 21.6527L158.435 25.5488Z" fill="white"/>
<path d="M173.898 34.5666L166.489 46.4931L163.584 44.6886L166.634 39.7787L162.115 36.9716L159.065 41.8815L156.16 40.0769L163.568 28.1505L166.473 29.955L163.571 34.6271L168.09 37.4341L170.992 32.7621L173.898 34.5666Z" fill="white"/>
<path d="M182.303 45.0764L180.321 47.1103L183.601 50.3068L181.758 52.1975L178.478 49.001L176.328 51.2068L180.038 54.8221L178.126 56.7844L171.967 50.7822L181.766 40.7272L187.925 46.7293L186.012 48.6916L182.303 45.0764Z" fill="white"/>
<path d="M187.18 68.2598C186.601 67.4115 186.221 66.5574 186.038 65.6976C185.856 64.8378 185.895 64.0201 186.157 63.2445C186.427 62.4799 186.934 61.8274 187.679 61.2872L189.729 64.2949C189.33 64.6319 189.101 65.0059 189.042 65.417C188.994 65.8206 189.109 66.2262 189.387 66.6339C189.673 67.0525 189.992 67.3192 190.344 67.4339C190.708 67.5411 191.06 67.4783 191.402 67.2455C191.688 67.0503 191.858 66.7896 191.91 66.4637C191.969 66.1487 191.962 65.8067 191.888 65.4376C191.821 65.0796 191.689 64.5891 191.49 63.9661C191.211 63.0593 191.025 62.2901 190.934 61.6587C190.842 61.0272 190.906 60.3868 191.125 59.7373C191.344 59.0879 191.817 58.5153 192.544 58.0197C193.623 57.2837 194.733 57.1003 195.872 57.4695C197.022 57.8312 198.025 58.64 198.881 59.896C199.753 61.174 200.146 62.4143 200.063 63.6171C199.99 64.8124 199.427 65.8093 198.374 66.6079L196.29 63.5506C196.649 63.2732 196.847 62.9365 196.884 62.5404C196.932 62.1368 196.82 61.7367 196.55 61.3401C196.317 60.9985 196.036 60.7869 195.706 60.7053C195.387 60.6161 195.056 60.6879 194.715 60.9207C194.34 61.1761 194.169 61.5514 194.2 62.0466C194.231 62.5418 194.38 63.2467 194.648 64.1611C194.906 65.083 195.076 65.8541 195.16 66.4745C195.252 67.106 195.194 67.7427 194.986 68.3846C194.778 69.0265 194.327 69.5841 193.633 70.0572C192.972 70.5078 192.255 70.7463 191.482 70.7728C190.717 70.8102 189.957 70.6184 189.202 70.1971C188.447 69.7759 187.773 69.1301 187.18 68.2598Z" fill="white"/>
<path d="M206.899 104.52L206.252 101.101L202.754 101.764L202.151 98.5802L205.649 97.9177L205.001 94.4985L208.008 93.929L208.655 97.3482L212.173 96.682L212.776 99.8654L209.258 100.532L209.906 103.951L206.899 104.52Z" fill="white"/>
<path d="M207.493 121.744L207.499 118.264L203.939 118.258L203.944 115.018L207.504 115.024L207.51 111.544L210.57 111.549L210.564 115.029L214.144 115.035L214.139 118.275L210.559 118.269L210.553 121.749L207.493 121.744Z" fill="white"/>
<path d="M204.841 138.772L205.5 135.355L202.005 134.681L202.618 131.499L206.114 132.174L206.773 128.757L209.778 129.336L209.119 132.753L212.634 133.431L212.02 136.613L208.505 135.935L207.846 139.352L204.841 138.772Z" fill="white"/>
</g>
<defs>
<clipPath id="clip0_221_75">
<rect width="232" height="232" fill="white" transform="translate(0.293457 0.293152)"/>
</clipPath>
</defs>
</svg>
