<svg xmlns="http://www.w3.org/2000/svg"
     style="width:0;height:0;position:absolute;overflow:hidden;">
    <defs>
        <!-- Instagram icon -->
        <symbol viewBox="0 0 24 24" id="instagram" fill-rule="evenodd" clip-rule="evenodd">
            <path
                d="M15.233 5.488c-.843-.038-1.097-.046-3.233-.046s-2.389.008-3.232.046c-2.17.099-3.181 1.127-3.279 3.279-.039.844-.048 1.097-.048 3.233s.009 2.389.047 3.233c.099 2.148 1.106 3.18 3.279 3.279.843.038 1.097.047 3.233.047 2.137 0 2.39-.008 3.233-.046 2.17-.099 3.18-1.129 3.279-3.279.038-.844.046-1.097.046-3.233s-.008-2.389-.046-3.232c-.099-2.153-1.111-3.182-3.279-3.281zm-3.233 10.62c-2.269 0-4.108-1.839-4.108-4.108 0-2.269 1.84-4.108 4.108-4.108s4.108 1.839 4.108 4.108c0 2.269-1.839 4.108-4.108 4.108zm4.271-7.418c-.53 0-.96-.43-.96-.96s.43-.96.96-.96.96.43.96.96-.43.96-.96.96zm-1.604 3.31c0 1.473-1.194 2.667-2.667 2.667s-2.667-1.194-2.667-2.667c0-1.473 1.194-2.667 2.667-2.667s2.667 1.194 2.667 2.667zm4.333-12h-14c-2.761 0-5 2.239-5 5v14c0 2.761 2.239 5 5 5h14c2.762 0 5-2.239 5-5v-14c0-2.761-2.238-5-5-5zm.952 15.298c-.132 2.909-1.751 4.521-4.653 4.654-.854.039-1.126.048-3.299.048s-2.444-.009-3.298-.048c-2.908-.133-4.52-1.748-4.654-4.654-.039-.853-.048-1.125-.048-3.298 0-2.172.009-2.445.048-3.298.134-2.908 1.748-4.521 4.654-4.653.854-.04 1.125-.049 3.298-.049s2.445.009 3.299.048c2.908.133 4.523 1.751 4.653 4.653.039.854.048 1.127.048 3.299 0 2.173-.009 2.445-.048 3.298z"/>
        </symbol>

        <!-- Youtube icon -->
        <symbol viewBox="0 0 24 24" id="youtube" fill-rule="evenodd" clip-rule="evenodd">
            <path
                d="M19.615 3.184c-3.604-.246-11.631-.245-15.23 0-3.897.266-4.356 2.62-4.385 8.816.029 6.185.484 8.549 4.385 8.816 3.6.245 11.626.246 15.23 0 3.897-.266 4.356-2.62 4.385-8.816-.029-6.185-.484-8.549-4.385-8.816zm-10.615 12.816v-8l8 3.993-8 4.007z"/>
        </symbol>

        <!-- Twitch icon -->
        <symbol viewBox="0 0 24 24" id="twitch" fill-rule="evenodd" clip-rule="evenodd">
            <path
                d="M2.149 0l-1.612 4.119v16.836h5.731v3.045h3.224l3.045-3.045h4.657l6.269-6.269v-14.686h-21.314zm19.164 13.612l-3.582 3.582h-5.731l-3.045 3.045v-3.045h-4.836v-15.045h17.194v11.463zm-3.582-7.343v6.262h-2.149v-6.262h2.149zm-5.731 0v6.262h-2.149v-6.262h2.149z"
                fill-rule="evenodd" clip-rule="evenodd"/>
        </symbol>

        <!-- Price tag icon -->
        <symbol viewBox="0 0 24 24" id="priceTag" fill-rule="evenodd" clip-rule="evenodd">
            <path d="M12.628 21.412l5.969-5.97 1.458 3.71-12.34 4.848-4.808-12.238 9.721 9.65zm-1.276-21.412h-9.352v9.453l10.625 10.547 9.375-9.375-10.648-10.625zm4.025 9.476c-.415-.415-.865-.617-1.378-.617-.578 0-1.227.241-2.171.804-.682.41-1.118.584-1.456.584-.361 0-1.083-.408-.961-1.218.052-.345.25-.697.572-1.02.652-.651 1.544-.848 2.276-.106l.744-.744c-.476-.476-1.096-.792-1.761-.792-.566 0-1.125.227-1.663.677l-.626-.627-.698.699.653.652c-.569.826-.842 2.021.076 2.938 1.011 1.011 2.188.541 3.413-.232.6-.379 1.083-.563 1.475-.563.589 0 1.18.498 1.078 1.258-.052.386-.26.763-.621 1.122-.451.451-.904.679-1.347.679-.418 0-.747-.192-1.049-.462l-.739.739c.463.458 1.082.753 1.735.753.544 0 1.087-.201 1.612-.597l.54.538.697-.697-.52-.521c.743-.896 1.157-2.209.119-3.247zm-9.678-7.476c.938 0 1.699.761 1.699 1.699 0 .938-.761 1.699-1.699 1.699-.938 0-1.699-.761-1.699-1.699 0-.938.761-1.699 1.699-1.699z"/>
        </symbol>

        <!-- Eco icon -->
        <symbol viewBox="0 0 24 24" id="eco" fill-rule="evenodd" clip-rule="evenodd">
            <path d="M15.787 7.531c-5.107 2.785-12.72 9.177-15.787 15.469h2.939c.819-2.021 2.522-4.536 3.851-5.902 8.386 3.747 17.21-2.775 17.21-11.343 0-1.535-.302-3.136-.92-4.755-2.347 3.119-5.647 1.052-10.851 1.625-7.657.844-11.162 6.797-8.764 11.54 3.506-3.415 9.523-6.38 12.322-6.634z"/>
        </symbol>

        <!-- Date icon -->
        <symbol viewBox="0 0 24 24" id="date" fill-rule="evenodd" clip-rule="evenodd">
            <path d="M20 19h-4v-4h4v4zm-6-10h-4v4h4v-4zm6 0h-4v4h4v-4zm-12 6h-4v4h4v-4zm16-14v22h-24v-22h24zm-2 6h-20v14h20v-14zm-8 8h-4v4h4v-4zm-6-6h-4v4h4v-4z"/>
        </symbol>

        <!-- Info icon -->
        <symbol viewBox="0 0 24 24" id="info" fill-rule="evenodd" clip-rule="evenodd">
            <path d="m2 4v16.002c0 .385.22.735.567.902.346.166.758.119 1.058-.121l4.725-3.781h12.65c.552 0 1-.448 1-1v-12.002c0-.552-.448-1-1-1h-18c-.552 0-1 .448-1 1zm9.998 5.002c.414 0 .75.336.75.75v3.5c0 .414-.336.75-.75.75s-.75-.336-.75-.75v-3.5c0-.414.336-.75.75-.75zm.002-3c.552 0 1 .448 1 1s-.448 1-1 1-1-.448-1-1 .448-1 1-1z" fill-rule="nonzero"/>
        </symbol>
    </defs>
</svg>
