<svg xmlns="http://www.w3.org/2000/svg"
     style="width:0;height:0;position:absolute;overflow:hidden;">
    <defs>
        <!-- Instagram icon -->
        <symbol viewBox="0 0 24 24" id="instagram" fill-rule="evenodd" clip-rule="evenodd">
            <path
                d="M15.233 5.488c-.843-.038-1.097-.046-3.233-.046s-2.389.008-3.232.046c-2.17.099-3.181 1.127-3.279 3.279-.039.844-.048 1.097-.048 3.233s.009 2.389.047 3.233c.099 2.148 1.106 3.18 3.279 3.279.843.038 1.097.047 3.233.047 2.137 0 2.39-.008 3.233-.046 2.17-.099 3.18-1.129 3.279-3.279.038-.844.046-1.097.046-3.233s-.008-2.389-.046-3.232c-.099-2.153-1.111-3.182-3.279-3.281zm-3.233 10.62c-2.269 0-4.108-1.839-4.108-4.108 0-2.269 1.84-4.108 4.108-4.108s4.108 1.839 4.108 4.108c0 2.269-1.839 4.108-4.108 4.108zm4.271-7.418c-.53 0-.96-.43-.96-.96s.43-.96.96-.96.96.43.96.96-.43.96-.96.96zm-1.604 3.31c0 1.473-1.194 2.667-2.667 2.667s-2.667-1.194-2.667-2.667c0-1.473 1.194-2.667 2.667-2.667s2.667 1.194 2.667 2.667zm4.333-12h-14c-2.761 0-5 2.239-5 5v14c0 2.761 2.239 5 5 5h14c2.762 0 5-2.239 5-5v-14c0-2.761-2.238-5-5-5zm.952 15.298c-.132 2.909-1.751 4.521-4.653 4.654-.854.039-1.126.048-3.299.048s-2.444-.009-3.298-.048c-2.908-.133-4.52-1.748-4.654-4.654-.039-.853-.048-1.125-.048-3.298 0-2.172.009-2.445.048-3.298.134-2.908 1.748-4.521 4.654-4.653.854-.04 1.125-.049 3.298-.049s2.445.009 3.299.048c2.908.133 4.523 1.751 4.653 4.653.039.854.048 1.127.048 3.299 0 2.173-.009 2.445-.048 3.298z"/>
        </symbol>

        <!-- Youtube icon -->
        <symbol viewBox="0 0 24 24" id="youtube" fill-rule="evenodd" clip-rule="evenodd">
            <path
                d="M19.615 3.184c-3.604-.246-11.631-.245-15.23 0-3.897.266-4.356 2.62-4.385 8.816.029 6.185.484 8.549 4.385 8.816 3.6.245 11.626.246 15.23 0 3.897-.266 4.356-2.62 4.385-8.816-.029-6.185-.484-8.549-4.385-8.816zm-10.615 12.816v-8l8 3.993-8 4.007z"/>
        </symbol>

        <!-- Twitch icon -->
        <symbol viewBox="0 0 24 24" id="twitch" fill-rule="evenodd" clip-rule="evenodd">
            <path
                d="M2.149 0l-1.612 4.119v16.836h5.731v3.045h3.224l3.045-3.045h4.657l6.269-6.269v-14.686h-21.314zm19.164 13.612l-3.582 3.582h-5.731l-3.045 3.045v-3.045h-4.836v-15.045h17.194v11.463zm-3.582-7.343v6.262h-2.149v-6.262h2.149zm-5.731 0v6.262h-2.149v-6.262h2.149z"
                fill-rule="evenodd" clip-rule="evenodd"/>
        </symbol>
    </defs>
</svg>
