<svg width="864" height="316" viewBox="0 0 864 316" fill="none" xmlns="http://www.w3.org/2000/svg">
<path d="M863.525 157.996C863.525 70.7398 792.139 0 704.067 0C699.819 0 695.606 0.164208 691.446 0.483984V121.783C695.397 120.426 699.645 119.692 704.067 119.692C725.429 119.692 742.734 136.847 742.734 157.996C742.734 179.161 725.42 196.308 704.067 196.308C699.645 196.308 695.397 195.574 691.446 194.217V315.516C695.606 315.844 699.819 316 704.067 316C792.139 316.009 863.525 245.269 863.525 157.996Z" fill="black"/>
<path d="M14.9214 122.02H0V195.683H14.9214V122.02Z" fill="black"/>
<path d="M56.0622 193.453L54.7593 195.718H40.1413V195.736L38.8384 193.453L14.9214 152.063L0 126.23V122.02H14.7964L14.9214 122.234L47.4592 178.538L56.0622 193.453Z" fill="black"/>
<path d="M94.9006 122.02H79.9792V195.683H94.9006V122.02Z" fill="black"/>
<path d="M94.9006 122.02V126.23L79.9793 152.063L56.0622 193.453L54.7593 195.718H40.1413V195.736L38.8384 193.453L47.4593 178.538L79.9793 122.234L80.1042 122.02H94.9006Z" fill="black"/>
<path d="M246.881 122.02H231.96V195.701H246.881V122.02Z" fill="black"/>
<path d="M281.275 122.02H197.601V136.934H281.275V122.02Z" fill="black"/>
<path d="M345.976 122.02H331.055V195.701H345.976V122.02Z" fill="black"/>
<path d="M380.352 122.02H296.678V136.934H380.352V122.02Z" fill="black"/>
<path d="M410.73 122.02H395.809V195.701H410.73V122.02Z" fill="black"/>
<path d="M470.505 180.803H395.809V195.718H470.505V180.803Z" fill="black"/>
<path d="M627.055 143.25V195.683H612.133V143.25L619.594 152.527L627.055 143.25Z" fill="black"/>
<path d="M663.287 122.02L627.055 167.049L619.594 176.326L612.133 185.585V161.786L619.594 152.527L627.055 143.25L644.136 122.02H663.287Z" fill="black"/>
<path d="M627.055 161.786V185.585L619.594 176.326L612.133 167.049L575.901 122.02H595.052L612.133 143.25L619.594 152.527L627.055 161.786Z" fill="black"/>
<path d="M560.533 180.803H485.837V195.718H560.533V180.803Z" fill="black"/>
<path d="M560.533 122.02H485.837V136.934H560.533V122.02Z" fill="black"/>
<path d="M560.676 151.243H485.855V166.157H560.676V151.243Z" fill="black"/>
<path d="M168.883 123.75L160.262 138.683L136.041 180.768L127.456 195.683H110.233L118.818 180.768L151.641 123.75L152.658 122.02H167.865L168.883 123.75Z" fill="black"/>
<path d="M210.416 195.433V195.683H193.335L184.679 180.768L160.262 138.683L151.641 123.75L152.658 122.02H167.865L168.883 123.75L201.938 180.768L210.416 195.433Z" fill="black"/>
</svg>
